<svg xmlns="http://www.w3.org/2000/svg" viewBox="0 0 2674.11 259.59"><defs><style>.cls-1{fill:#231f20;}.cls-2{fill:none;stroke:#231f20;stroke-miterlimit:10;stroke-width:3px;}</style></defs><g id="Layer_2" data-name="Layer 2"><g id="Layer_1-2" data-name="Layer 1"><path class="cls-1" d="M394.85,282.8q-29.31,0-49-9t-29.93-23.68q-10.24-14.62-10.87-30.74A6.86,6.86,0,0,1,307,214.4a6.3,6.3,0,0,1,4.73-2h28c2.72,0,4.77.61,6.14,1.81a18.91,18.91,0,0,1,3.62,4.44A33.54,33.54,0,0,0,356.73,231a39.79,39.79,0,0,0,14.65,10q9.28,3.94,23.47,3.94,22.68,0,33.86-7.89t11.19-21.37q0-9.54-6-15.29T415.48,189.9a316,316,0,0,0-32.92-10Q358.94,174,343,165.57t-23.94-21.21q-8-12.83-8-32.56,0-19.06,9.92-33.87t28.35-23.35Q367.76,46,393.27,46q20.48,0,36.23,5.75t26.15,15.13A71,71,0,0,1,471.56,87a48.92,48.92,0,0,1,5.83,20.88,7.34,7.34,0,0,1-1.74,4.76,5.91,5.91,0,0,1-4.88,2.14h-29.3a10.76,10.76,0,0,1-5-1.31,9.54,9.54,0,0,1-4.09-4.94q-1.89-10.19-12.29-17.42t-26.78-7.24q-17,0-27.41,6.58t-10.39,20.39q0,9.21,5.2,15.29t16.69,10.69a302.47,302.47,0,0,0,30.4,9.86q26.78,6.26,43.79,14.47T476.44,182q7.88,12.66,7.88,32.06,0,21.7-11.19,37t-31.34,23.51Q421.61,282.8,394.85,282.8Z" transform="translate(0 -41.3)"/><path class="cls-1" d="M662,300.89a9.36,9.36,0,0,1-7.09-2.8q-2.68-2.79-4.25-4.77L639,276.88q-14.82,5.92-33.71,5.92-28,0-48.36-9.7a69.5,69.5,0,0,1-31.5-29.92Q514.24,222.95,513,192.7q-.32-14.13-.31-27.95t.31-28.28q1.26-29.93,12.76-50a74.33,74.33,0,0,1,32-30.25Q578.19,46,605.29,46t47.57,10.19A75.3,75.3,0,0,1,685,86.48q11.65,20.07,12.29,50,.63,14.47.63,28.28t-.63,27.95q-1.57,43.08-22.68,65.44l22,32.55a3.62,3.62,0,0,1,.63,1.16,6,6,0,0,1,.32,2.13,5.67,5.67,0,0,1-1.74,4.93,6.43,6.43,0,0,1-4.56,2ZM605.29,245q20.16,0,33.08-12.66t13.86-41.26q.63-14.48.63-26.81t-.63-26.47q-.32-19.07-6.62-31.07T629.08,89.28q-10.25-5.43-23.79-5.43a50.28,50.28,0,0,0-23.63,5.43q-10.39,5.41-16.54,17.43T558,137.78q-.31,14.15-.31,26.47t.31,26.81q1.26,28.6,14.18,41.26T605.29,245Z" transform="translate(0 -41.3)"/><path class="cls-1" d="M827.39,282.8q-27.4,0-47.57-9.7a68.77,68.77,0,0,1-31.19-29.92q-11-20.24-11-51.8V57.54a8.22,8.22,0,0,1,2.21-5.92,7.13,7.13,0,0,1,5.35-2.3h28.67a7,7,0,0,1,5.52,2.3,8.61,8.61,0,0,1,2,5.92V191.38q0,27,12.29,40t33.71,13q21.42,0,33.55-13t12.13-40V57.54a8.22,8.22,0,0,1,2.2-5.92,7.52,7.52,0,0,1,5.67-2.3H909.3a7,7,0,0,1,5.51,2.3,8.61,8.61,0,0,1,2.05,5.92V191.38q0,31.58-10.87,51.8a68.17,68.17,0,0,1-30.87,29.92Q855.11,282.79,827.39,282.8Z" transform="translate(0 -41.3)"/><path class="cls-1" d="M945.84,279.51a6.43,6.43,0,0,1-4.57-2,6.54,6.54,0,0,1-2-4.93,8.39,8.39,0,0,1,.63-3l75.93-212.11a12.36,12.36,0,0,1,3.62-5.75,10.52,10.52,0,0,1,7.4-2.47h34.34c3.15,0,5.57.83,7.25,2.47a16,16,0,0,1,3.78,5.75l75.92,212.11a15.94,15.94,0,0,1,.32,3,6.84,6.84,0,0,1-1.89,4.93,5.9,5.9,0,0,1-4.41,2H1114.7c-2.94,0-5.1-.71-6.46-2.13a11,11,0,0,1-2.68-4.11l-14.8-40.12H997.19l-14.81,40.12a11.12,11.12,0,0,1-2.67,4.11q-2.06,2.13-6.46,2.13Zm62.38-84.18h71.51L1043.82,93.72Z" transform="translate(0 -41.3)"/><path class="cls-1" d="M1185.27,279.51a7.11,7.11,0,0,1-5.36-2.3,7.78,7.78,0,0,1-2.21-5.59V57.54a8.22,8.22,0,0,1,2.21-5.92,7.15,7.15,0,0,1,5.36-2.3h81.59q38.12,0,60.17,18.42t22,53.6q0,24.35-11.5,40.45a64.83,64.83,0,0,1-30.71,23.35l46,83.85a8.49,8.49,0,0,1,1,3.62,6.58,6.58,0,0,1-2,4.93,6.43,6.43,0,0,1-4.57,2h-28.67c-3.57,0-6.3-1-8.19-3a26.79,26.79,0,0,1-4.41-5.92l-40.64-77.93h-43.79v78.92a8.13,8.13,0,0,1-2,5.59,7,7,0,0,1-5.52,2.3Zm36.22-124h44.42q19.21,0,28.67-9T1304,121q0-16.44-9.29-25.81t-28.83-9.37h-44.42Z" transform="translate(0 -41.3)"/><path class="cls-1" d="M1397.28,279.51a7.09,7.09,0,0,1-5.35-2.3,7.74,7.74,0,0,1-2.21-5.59V57.54a8.18,8.18,0,0,1,2.21-5.92,7.13,7.13,0,0,1,5.35-2.3H1535.9a7.54,7.54,0,0,1,5.67,2.3,8.26,8.26,0,0,1,2.2,5.92V79.25a7.82,7.82,0,0,1-2.2,5.59,7.5,7.5,0,0,1-5.67,2.3H1432.25v58.21H1529a7.86,7.86,0,0,1,5.67,2.13,7.7,7.7,0,0,1,2.2,5.76v20.39a7.66,7.66,0,0,1-2.2,5.75,7.82,7.82,0,0,1-5.67,2.14h-96.72V241.7h106.17a7.52,7.52,0,0,1,5.67,2.3,8.24,8.24,0,0,1,2.2,5.92v21.7a7.82,7.82,0,0,1-2.2,5.59,7.48,7.48,0,0,1-5.67,2.3Z" transform="translate(0 -41.3)"/><path class="cls-1" d="M1665.37,279.51a7.09,7.09,0,0,1-5.35-2.3,7.74,7.74,0,0,1-2.21-5.59V57.54a8.18,8.18,0,0,1,2.21-5.92,7.13,7.13,0,0,1,5.35-2.3h84.43q24.57,0,42.84,8.06A61.82,61.82,0,0,1,1821,81.71q10.08,16.29,10.08,40.62,0,24.66-10.08,40.61a61.48,61.48,0,0,1-28.36,23.84q-18.27,7.89-42.84,7.89h-46.94v77a8.09,8.09,0,0,1-2,5.59,7,7,0,0,1-5.51,2.3Zm36.86-121.34h46q18.26,0,28-9t9.77-26.8q0-16.44-9.14-26.48t-28.66-10h-46Z" transform="translate(0 -41.3)"/><path class="cls-1" d="M1873,279.51a7.43,7.43,0,0,1-5.36-2.13,7.65,7.65,0,0,1-2.2-5.76V57.54a8.22,8.22,0,0,1,2.2-5.92,7.16,7.16,0,0,1,5.36-2.3h28.67a7,7,0,0,1,5.51,2.3,8.61,8.61,0,0,1,2,5.92v84.85h92.93V57.54a8.22,8.22,0,0,1,2.21-5.92,7.13,7.13,0,0,1,5.35-2.3h28.36a7.54,7.54,0,0,1,5.67,2.3,8.26,8.26,0,0,1,2.2,5.92V271.62a7.82,7.82,0,0,1-2.2,5.59,7.5,7.5,0,0,1-5.67,2.3H2009.7a7.09,7.09,0,0,1-5.35-2.3,7.78,7.78,0,0,1-2.21-5.59V183.49h-92.93v88.13a8.14,8.14,0,0,1-2,5.59,7,7,0,0,1-5.51,2.3Z" transform="translate(0 -41.3)"/><path class="cls-1" d="M2179.82,282.8q-28.05,0-48.2-9.7a70.62,70.62,0,0,1-31.51-29.92q-11.34-20.24-12.28-50.48-.32-14.13-.32-27.95t.32-28.28q.95-29.93,12.6-50a75.5,75.5,0,0,1,32-30.25Q2152.72,46,2179.82,46t47.57,10.19a75.3,75.3,0,0,1,32.13,30.25q11.66,20.07,12.6,50,.63,14.47.63,28.28t-.63,27.95q-.95,30.26-12.28,50.48a70.4,70.4,0,0,1-31.66,29.92Q2207.86,282.79,2179.82,282.8Zm0-37.82q20.47,0,33.39-12.66t13.86-41.26q.63-14.48.63-26.81t-.63-26.47q-.63-19.07-6.77-31.07t-16.54-17.43a51,51,0,0,0-23.94-5.43,50.28,50.28,0,0,0-23.63,5.43q-10.39,5.41-16.54,17.43t-6.77,31.07q-.32,14.15-.32,26.47t.32,26.81q.95,28.6,13.86,41.26T2179.82,245Z" transform="translate(0 -41.3)"/><path class="cls-1" d="M2366,279.51a7.11,7.11,0,0,1-5.36-2.3,7.77,7.77,0,0,1-2.2-5.59V89.77h-58.29a7.11,7.11,0,0,1-5.35-2.3,7.78,7.78,0,0,1-2.21-5.59V57.54a8.22,8.22,0,0,1,2.21-5.92,7.14,7.14,0,0,1,5.35-2.3h160.67a7.52,7.52,0,0,1,5.67,2.3,8.22,8.22,0,0,1,2.21,5.92V81.88a7.78,7.78,0,0,1-2.21,5.59,7.48,7.48,0,0,1-5.67,2.3h-58V271.62a7.78,7.78,0,0,1-2.21,5.59,7.48,7.48,0,0,1-5.67,2.3Z" transform="translate(0 -41.3)"/><path class="cls-1" d="M2581.18,282.8q-28,0-48.2-9.7a70.55,70.55,0,0,1-31.5-29.92q-11.36-20.24-12.29-50.48-.32-14.13-.32-27.95t.32-28.28q.95-29.93,12.6-50a75.5,75.5,0,0,1,32-30.25Q2554.08,46,2581.18,46t47.57,10.19a75.3,75.3,0,0,1,32.13,30.25q11.65,20.07,12.6,50,.63,14.47.63,28.28t-.63,27.95q-.95,30.26-12.28,50.48a70.4,70.4,0,0,1-31.66,29.92Q2609.21,282.79,2581.18,282.8Zm0-37.82q20.47,0,33.39-12.66t13.86-41.26q.63-14.48.63-26.81t-.63-26.47q-.63-19.07-6.77-31.07t-16.54-17.43a51,51,0,0,0-23.94-5.43,50.28,50.28,0,0,0-23.63,5.43q-10.4,5.41-16.54,17.43t-6.77,31.07q-.31,14.15-.32,26.47t.32,26.81q.95,28.6,13.86,41.26T2581.18,245Z" transform="translate(0 -41.3)"/><rect class="cls-2" x="69.29" y="110.59" width="107.54" height="107.54" rx="17.05" transform="translate(-72.02 59.01) rotate(-35)"/><rect class="cls-2" x="67.63" y="108.93" width="110.87" height="110.87" rx="17.58" transform="translate(-65.69 42.25) rotate(-30)"/><rect class="cls-2" x="65.91" y="107.21" width="114.3" height="114.3" rx="18.12" transform="translate(-57.93 26.11) rotate(-25)"/><rect class="cls-2" x="64.14" y="105.45" width="117.83" height="117.83" rx="18.68" transform="translate(-48.79 10.7) rotate(-20)"/><rect class="cls-2" x="62.32" y="103.62" width="121.48" height="121.48" rx="19.26" transform="matrix(0.97, -0.26, 0.26, 0.97, -38.35, -3.85)"/><rect class="cls-2" x="60.44" y="101.75" width="125.23" height="125.23" rx="19.85" transform="translate(-26.67 -17.44) rotate(-10)"/><rect class="cls-2" x="58.51" y="99.81" width="129.11" height="129.11" rx="20.47" transform="translate(-13.86 -29.95) rotate(-5)"/><rect class="cls-2" x="56.51" y="56.51" width="133.1" height="133.1" rx="21.1"/><rect class="cls-2" x="54.45" y="95.75" width="137.22" height="137.22" rx="21.75" transform="translate(-51.4 231.33) rotate(-85)"/><rect class="cls-2" x="52.33" y="93.63" width="141.46" height="141.46" rx="22.43" transform="translate(-60.17 215.71) rotate(-80)"/><rect class="cls-2" x="50.14" y="91.45" width="145.84" height="145.84" rx="23.12" transform="translate(-67.55 199.39) rotate(-75)"/><rect class="cls-2" x="47.89" y="89.19" width="150.35" height="150.35" rx="23.84" transform="translate(-73.48 182.49) rotate(-70)"/><rect class="cls-2" x="45.56" y="86.87" width="155" height="155" rx="24.57" transform="translate(-77.91 165.13) rotate(-65)"/><rect class="cls-2" x="43.17" y="84.47" width="159.79" height="159.79" rx="25.33" transform="translate(-80.81 147.45) rotate(-60)"/><rect class="cls-2" x="40.7" y="82" width="164.73" height="164.73" rx="26.12" transform="translate(-82.16 129.59) rotate(-55)"/><rect class="cls-2" x="38.15" y="79.45" width="169.83" height="169.83" rx="26.92" transform="translate(-81.95 111.68) rotate(-50)"/><rect class="cls-2" x="35.52" y="76.82" width="175.08" height="175.08" rx="27.76" transform="translate(-80.18 93.86) rotate(-45)"/><rect class="cls-2" x="32.81" y="74.12" width="180.49" height="180.49" rx="28.61" transform="translate(-76.86 76.25) rotate(-40)"/><rect class="cls-2" x="30.02" y="71.33" width="186.08" height="186.08" rx="29.5" transform="translate(-72.02 59.01) rotate(-35)"/><rect class="cls-2" x="27.15" y="68.45" width="191.83" height="191.83" rx="30.41" transform="translate(-65.69 42.25) rotate(-30)"/><rect class="cls-2" x="24.18" y="65.48" width="197.76" height="197.76" rx="31.35" transform="translate(-57.93 26.11) rotate(-25)"/><rect class="cls-2" x="21.12" y="62.42" width="203.88" height="203.88" rx="32.32" transform="translate(-48.79 10.7) rotate(-20)"/><rect class="cls-2" x="17.97" y="59.27" width="210.19" height="210.19" rx="33.32" transform="translate(-38.35 -3.85) rotate(-15)"/><rect class="cls-2" x="14.72" y="56.02" width="216.69" height="216.69" rx="34.35" transform="translate(-26.67 -17.44) rotate(-10)"/><rect class="cls-2" x="11.37" y="52.67" width="223.39" height="223.39" rx="35.42" transform="translate(-13.86 -29.95) rotate(-5)"/><rect class="cls-2" x="7.91" y="7.91" width="230.3" height="230.3" rx="36.51"/></g></g></svg>